<svg xmlns="http://www.w3.org/2000/svg" viewBox="0 0 240.42 70.54"><defs><style>.cls-1{fill:#acaff5;}.cls-1,.cls-2,.cls-3,.cls-4,.cls-5,.cls-6,.cls-7{opacity:0.82;}.cls-2{fill:#77dd76;}.cls-3{fill:#757678;}.cls-4{fill:#99d0d3;}.cls-5{fill:#28c5f4;}.cls-6{fill:#f1d073;}.cls-7{fill:#db6041;}.cls-8{fill:#fff;}.cls-9{fill:#818e94;}</style></defs><g id="Layer_2" data-name="Layer 2"><g id="Layer_1-2" data-name="Layer 1"><g id="Layer_2-2" data-name="Layer 2"><g id="graphics"><circle class="cls-1" cx="35.65" cy="20.67" r="20.67"/><circle class="cls-2" cx="23.63" cy="26.54" r="20.67"/><circle class="cls-3" cx="47.68" cy="26.54" r="20.67"/><circle class="cls-4" cx="20.67" cy="39.49" r="20.67"/><circle class="cls-5" cx="29.06" cy="49.87" r="20.67"/><circle class="cls-6" cx="42.35" cy="49.87" r="20.67"/><ellipse class="cls-7" cx="50.62" cy="39.43" rx="20.68" ry="20.62"/><path class="cls-8" d="M58.34,63c-2.4.1-5.76-.83-9.68-2.74C41.87,57,34.17,51.2,27,44S14,29.12,10.71,22.33C8.93,18.66,8,15.48,8,13.13a20.86,20.86,0,0,0-3,4.61,37.2,37.2,0,0,0,2.37,6.2c3.49,7.15,9.52,15.21,17,22.72s15.52,13.5,22.67,17a32.48,32.48,0,0,0,7.77,2.79A21,21,0,0,0,58.34,63Z"/><path class="cls-8" d="M21.86,59.46c-.54-7.58.62-17.2,3.27-27.08S31.58,13.59,35.84,7.3A26.66,26.66,0,0,1,41.58.87,20.6,20.6,0,0,0,36.91.05a37.38,37.38,0,0,0-4.14,5.17c-4.43,6.63-8.43,15.94-11.22,26.2s-3.95,20.32-3.38,28.3a31.75,31.75,0,0,0,1.64,8.63A20.55,20.55,0,0,0,25,70.13C23.34,68.28,22.22,64.52,21.86,59.46Z"/><path class="cls-8" d="M.11,41.59A28.75,28.75,0,0,1,6.49,36c6.58-4.45,15.88-8.42,26.2-11.18A96.14,96.14,0,0,1,57,21.29c1.37,0,2.69,0,4,.13a33.16,33.16,0,0,1,7,1.18,20.69,20.69,0,0,0-1.35-4.35c-9.07-1.84-22.52-.48-34.93,2.85C21,24,11.29,28.1,4.37,32.81a44.84,44.84,0,0,0-4,3,20.45,20.45,0,0,0-.21,5.74Z"/><path class="cls-9" d="M115.34,47.12V43.59a12.81,12.81,0,0,1-4.07,3,13.34,13.34,0,0,1-5.78,1.12,14.28,14.28,0,0,1-4.35-.64,10.15,10.15,0,0,1-3.56-1.91A9.14,9.14,0,0,1,95.17,42a9.91,9.91,0,0,1-.88-4.29v-.07a10.24,10.24,0,0,1,1-4.62A8.83,8.83,0,0,1,98,29.81a12.42,12.42,0,0,1,4.14-1.92,21.22,21.22,0,0,1,5.32-.64,22.62,22.62,0,0,1,4.35.37,27.11,27.11,0,0,1,3.63,1v-.54a5.58,5.58,0,0,0-1.77-4.45,7.9,7.9,0,0,0-5.23-1.52,21.35,21.35,0,0,0-4.72.46,31.71,31.71,0,0,0-4.38,1.25L97,16.76a36.88,36.88,0,0,1,5.6-1.89,29.46,29.46,0,0,1,7.06-.73q7.61,0,11.07,3.71t3.47,10.35V47.12ZM115.53,34a14.3,14.3,0,0,0-2.71-.88,14.93,14.93,0,0,0-3.2-.34,8.27,8.27,0,0,0-4.68,1.16,3.81,3.81,0,0,0-1.71,3.35v.12a3.42,3.42,0,0,0,1.4,2.92,6,6,0,0,0,3.66,1,8.14,8.14,0,0,0,5.26-1.58,5,5,0,0,0,2-4.14Z"/><path class="cls-9" d="M144.9,47.15a14.42,14.42,0,0,1-4.08.52,15.67,15.67,0,0,1-3.86-.45,6.93,6.93,0,0,1-3-1.62,7.58,7.58,0,0,1-2-3,13.52,13.52,0,0,1-.7-4.72V22.42h-3.9V14.51h3.93V6.17h9.25v8.34h7.67v7.91h-7.67V36.35c0,2.11,1,3.16,3,3.17a9.58,9.58,0,0,0,4.57-1.16v7.43A14.79,14.79,0,0,1,144.9,47.15Z"/><path class="cls-9" d="M185,37.48a16.79,16.79,0,0,1-3.66,5.38,17.62,17.62,0,0,1-5.6,3.66,18.16,18.16,0,0,1-7.06,1.34,18.43,18.43,0,0,1-7-1.31A17.14,17.14,0,0,1,156.12,43a16.83,16.83,0,0,1-3.78-5.36A16.26,16.26,0,0,1,151,31v-.12a16.34,16.34,0,0,1,1.33-6.61,16.85,16.85,0,0,1,3.72-5.38,17.32,17.32,0,0,1,5.6-3.65,19.15,19.15,0,0,1,14,0,17.17,17.17,0,0,1,5.68,3.59,16.56,16.56,0,0,1,5,12v.13A16.29,16.29,0,0,1,185,37.48Zm-7.79-6.6a9.64,9.64,0,0,0-.61-3.44,8.74,8.74,0,0,0-4.5-4.86,8,8,0,0,0-3.47-.73,8.54,8.54,0,0,0-3.56.7,8.08,8.08,0,0,0-2.64,1.92,8.47,8.47,0,0,0-1.68,2.83,10.26,10.26,0,0,0-.58,3.43v.13a9.8,9.8,0,0,0,.61,3.43,8.78,8.78,0,0,0,1.77,2.87,8.49,8.49,0,0,0,2.71,2,8.07,8.07,0,0,0,3.49.73,8.39,8.39,0,0,0,3.56-.7A7.72,7.72,0,0,0,175,37.28a8.57,8.57,0,0,0,1.68-2.83,10.35,10.35,0,0,0,.57-3.44Z"/><path class="cls-9" d="M231.13,47.12V29a7.51,7.51,0,0,0-1.4-4.94,4.91,4.91,0,0,0-4-1.67,5.2,5.2,0,0,0-4.1,1.67,7.14,7.14,0,0,0-1.5,4.94V47.12h-9.25V29A7.51,7.51,0,0,0,209.49,24a5,5,0,0,0-4-1.67A5.21,5.21,0,0,0,201.34,24,7.22,7.22,0,0,0,199.85,29V47.12H190.6V14.51h9.25v4.66a22,22,0,0,1,1.73-2,11.79,11.79,0,0,1,2.1-1.69,9.88,9.88,0,0,1,2.59-1.16,12.16,12.16,0,0,1,8.76.92,9.11,9.11,0,0,1,3.62,3.86,14.66,14.66,0,0,1,4.75-3.89,13,13,0,0,1,6-1.32q5.17,0,8.1,3c1.95,2,2.93,5,2.92,9V47.12Z"/><path class="cls-9" d="M120,62.33V61.14a3.5,3.5,0,0,1-.44.5,2.85,2.85,0,0,1-.6.43,3.49,3.49,0,0,1-1.7.43,3.77,3.77,0,0,1-1-.14,2.86,2.86,0,0,1-.88-.42,2.25,2.25,0,0,1-.64-.7,2,2,0,0,1-.25-1h0a2,2,0,0,1,.24-1,2.11,2.11,0,0,1,.63-.73,3,3,0,0,1,1-.45,5.53,5.53,0,0,1,1.28-.15,8.11,8.11,0,0,1,1.3.08,9.7,9.7,0,0,1,1.07.23v-.31a2.07,2.07,0,0,0-.62-1.65,2.52,2.52,0,0,0-1.73-.54,4.11,4.11,0,0,0-1.21.16,6.23,6.23,0,0,0-1,.42l-.25-.61a7.14,7.14,0,0,1,1.19-.46,5.1,5.1,0,0,1,1.35-.17,3.17,3.17,0,0,1,2.19.7,2.64,2.64,0,0,1,.8,2.11v4.46Zm0-3.49c-.3-.08-.65-.15-1-.22a8,8,0,0,0-1.38-.11,2.92,2.92,0,0,0-1.75.46,1.45,1.45,0,0,0-.61,1.21h0a1.5,1.5,0,0,0,.17.69,1.72,1.72,0,0,0,.46.51,1.89,1.89,0,0,0,.67.32,2.94,2.94,0,0,0,.78.11,3.08,3.08,0,0,0,1-.16,2.83,2.83,0,0,0,.86-.45,2,2,0,0,0,.59-.69,1.83,1.83,0,0,0,.22-.89Z"/><path class="cls-9" d="M128.54,62.33V58.08A2.61,2.61,0,0,0,128,56.3a2.12,2.12,0,0,0-1.68-.66,2.47,2.47,0,0,0-1,.19A2.38,2.38,0,0,0,124,57.16a2.65,2.65,0,0,0-.19,1V62.3h-.69V55.17h.69v1.34a3.3,3.3,0,0,1,1-1.07,2.75,2.75,0,0,1,1.6-.44,3.36,3.36,0,0,1,1.21.22,2.8,2.8,0,0,1,.91.61,2.64,2.64,0,0,1,.56.94,3.39,3.39,0,0,1,.19,1.18v4.38Z"/><path class="cls-9" d="M136.61,62.33V61.14a3.5,3.5,0,0,1-.44.5,2.85,2.85,0,0,1-.6.43,3,3,0,0,1-.76.31,3.65,3.65,0,0,1-.93.12,3.77,3.77,0,0,1-1-.14,2.91,2.91,0,0,1-.89-.42,2.22,2.22,0,0,1-.63-.7,1.84,1.84,0,0,1-.25-1h0a2,2,0,0,1,.23-1,2.25,2.25,0,0,1,.64-.73,2.83,2.83,0,0,1,1-.45,5.53,5.53,0,0,1,1.28-.15,8.16,8.16,0,0,1,1.31.08,9.52,9.52,0,0,1,1.06.23v-.31a2.06,2.06,0,0,0-.62-1.64,2.57,2.57,0,0,0-1.73-.54,4.11,4.11,0,0,0-1.21.16,5.87,5.87,0,0,0-1,.42l-.25-.61a7.14,7.14,0,0,1,1.19-.46,5,5,0,0,1,1.33-.18,3.27,3.27,0,0,1,2.19.7,2.64,2.64,0,0,1,.8,2.11v4.46Zm0-3.49c-.3-.08-.65-.15-1.06-.22a7.83,7.83,0,0,0-1.37-.11,2.92,2.92,0,0,0-1.75.46,1.42,1.42,0,0,0-.61,1.21h0a1.43,1.43,0,0,0,.63,1.2,2,2,0,0,0,.66.32,3,3,0,0,0,.79.11,3.37,3.37,0,0,0,1-.16,3.07,3.07,0,0,0,.86-.45,2,2,0,0,0,.59-.69,1.83,1.83,0,0,0,.22-.89Z"/><path class="cls-9" d="M139.86,62.33V52.08h.69V62.33Z"/><path class="cls-9" d="M146.51,62.59a4.1,4.1,0,0,1-1,1.58,2.09,2.09,0,0,1-1.34.45,2.56,2.56,0,0,1-.73-.08,4,4,0,0,1-.69-.23l.24-.62a2.52,2.52,0,0,0,.54.21,3.82,3.82,0,0,0,.68.06,1.82,1.82,0,0,0,.52-.08,1.2,1.2,0,0,0,.45-.29,2.55,2.55,0,0,0,.4-.53,5.74,5.74,0,0,0,.4-.78l-3.44-7.11h.8l3,6.4,2.59-6.4h.76Z"/><path class="cls-9" d="M154.51,62.4a3,3,0,0,1-1.4,0,2,2,0,0,1-.64-.36,1.69,1.69,0,0,1-.43-.62,2.21,2.21,0,0,1-.15-.88V55.8h-1v-.63h1V52.88h.69v2.29h2.51v.63h-2.51v4.61a1.25,1.25,0,0,0,.4,1.08,1.63,1.63,0,0,0,1,.31,2.17,2.17,0,0,0,.51,0,3.46,3.46,0,0,0,.54-.19v.65A3.07,3.07,0,0,1,154.51,62.4Z"/><path class="cls-9" d="M157.14,53.3v-.94H158v.94Zm.09,9V55.17h.68v7.16Z"/><path class="cls-9" d="M165.45,62.09a3.17,3.17,0,0,1-1.68.41,3.54,3.54,0,0,1-1.44-.3,3.62,3.62,0,0,1-1.16-.81,3.8,3.8,0,0,1-1-2.61h0a3.68,3.68,0,0,1,.28-1.43,3.83,3.83,0,0,1,.76-1.19,3.5,3.5,0,0,1,1.16-.82,3.25,3.25,0,0,1,1.44-.31,4.06,4.06,0,0,1,.92.11,3.87,3.87,0,0,1,1.4.72,6.51,6.51,0,0,1,.54.51l-.49.5a6.12,6.12,0,0,0-1-.83,2.64,2.64,0,0,0-1.37-.35,2.81,2.81,0,0,0-1.14.24,2.92,2.92,0,0,0-.91.65,3.2,3.2,0,0,0-.61,1,3.28,3.28,0,0,0-.23,1.2h0a3.37,3.37,0,0,0,.23,1.21,3.29,3.29,0,0,0,.64,1,2.74,2.74,0,0,0,.93.65,2.82,2.82,0,0,0,1.15.24,2.67,2.67,0,0,0,1.36-.34,4.29,4.29,0,0,0,1-.85l.48.42A5.21,5.21,0,0,1,165.45,62.09Z"/><path class="cls-9" d="M173.24,61.25a2.12,2.12,0,0,1-.53.66,2.36,2.36,0,0,1-.78.42,3.36,3.36,0,0,1-1,.14,4.47,4.47,0,0,1-1.58-.29,5,5,0,0,1-1.36-.76l.41-.55a4.89,4.89,0,0,0,1.24.7,3.81,3.81,0,0,0,1.33.24,2,2,0,0,0,1.23-.36,1.19,1.19,0,0,0,.5-1h0a1,1,0,0,0-.16-.54,1.31,1.31,0,0,0-.42-.39,3.28,3.28,0,0,0-.6-.28L170.8,59l-.88-.27a3,3,0,0,1-.79-.36,1.84,1.84,0,0,1-.57-.54,1.39,1.39,0,0,1-.22-.79h0a1.79,1.79,0,0,1,.18-.79,2.11,2.11,0,0,1,.48-.63,2.38,2.38,0,0,1,.75-.41,3.09,3.09,0,0,1,.95-.15,4.31,4.31,0,0,1,1.33.22,4.5,4.5,0,0,1,1.21.58l-.36.58a4.74,4.74,0,0,0-1.06-.52,3.48,3.48,0,0,0-1.15-.2,1.85,1.85,0,0,0-1.18.36,1.08,1.08,0,0,0-.44.89h0a.86.86,0,0,0,.16.51,1.46,1.46,0,0,0,.45.37,3.61,3.61,0,0,0,.64.27l.74.23.86.28a2.94,2.94,0,0,1,.75.38,1.67,1.67,0,0,1,.54.55,1.41,1.41,0,0,1,.21.8h0A1.85,1.85,0,0,1,173.24,61.25Z"/><path class="cls-9" d="M186.65,60.32a3.79,3.79,0,0,1-.8,1.18,3.43,3.43,0,0,1-1.11.74,3.24,3.24,0,0,1-1.27.26,3.36,3.36,0,0,1-1-.14,3.09,3.09,0,0,1-.8-.38,3.44,3.44,0,0,1-.65-.55,4.48,4.48,0,0,1-.51-.64v3.79h-.69V55.17h.69v1.6a4.81,4.81,0,0,1,.52-.67,3.16,3.16,0,0,1,.65-.56,4,4,0,0,1,.8-.39,2.82,2.82,0,0,1,1-.15,3.24,3.24,0,0,1,1.27.26,3.57,3.57,0,0,1,1.11.73,3.64,3.64,0,0,1,.8,1.17,3.77,3.77,0,0,1,.3,1.56h0A4,4,0,0,1,186.65,60.32Zm-.43-1.57a3.44,3.44,0,0,0-.23-1.27,2.87,2.87,0,0,0-.61-1,3,3,0,0,0-.9-.62,2.73,2.73,0,0,0-2.17,0,2.94,2.94,0,0,0-.93.63,3.35,3.35,0,0,0-.66,1,3.16,3.16,0,0,0-.24,1.25h0a3.16,3.16,0,0,0,.9,2.25,2.92,2.92,0,0,0,1,.67,2.72,2.72,0,0,0,1.09.22,3,3,0,0,0,1.11-.21,2.59,2.59,0,0,0,.89-.6,2.7,2.7,0,0,0,.6-1,3.54,3.54,0,0,0,.22-1.29Z"/><path class="cls-9" d="M195.69,60.18a3.79,3.79,0,0,1-.77,1.2,4,4,0,0,1-1.18.82,3.65,3.65,0,0,1-4.1-.81,3.52,3.52,0,0,1-.76-1.18,3.86,3.86,0,0,1-.27-1.43h0a3.9,3.9,0,0,1,.27-1.43,3.75,3.75,0,0,1,.77-1.19,3.54,3.54,0,0,1,1.17-.82A3.42,3.42,0,0,1,192.3,55a3.38,3.38,0,0,1,1.47.31,3.66,3.66,0,0,1,1.15.8,3.7,3.7,0,0,1,.77,1.18,3.9,3.9,0,0,1,.27,1.43h0A3.86,3.86,0,0,1,195.69,60.18Zm-.46-1.43a3.36,3.36,0,0,0-.22-1.21,3.08,3.08,0,0,0-.63-1,2.85,2.85,0,0,0-.95-.66,2.9,2.9,0,0,0-1.16-.24,2.81,2.81,0,0,0-1.18.25,2.77,2.77,0,0,0-.93.66,2.87,2.87,0,0,0-.61,1,3.41,3.41,0,0,0-.21,1.18h0a3.36,3.36,0,0,0,.22,1.21,3.08,3.08,0,0,0,.63,1,2.78,2.78,0,0,0,.94.65,3,3,0,0,0,2.35,0,2.92,2.92,0,0,0,.93-.66,2.84,2.84,0,0,0,.6-1,3.22,3.22,0,0,0,.22-1.19Z"/><path class="cls-9" d="M201.87,55.82a3.13,3.13,0,0,0-1.17.23,2.57,2.57,0,0,0-1,.69,3.24,3.24,0,0,0-.69,1.12,4.52,4.52,0,0,0-.25,1.54v2.93h-.69V55.17h.69v2a3.85,3.85,0,0,1,.54-.89,3.36,3.36,0,0,1,1.62-1.13,3.35,3.35,0,0,1,1-.13v.76Z"/><path class="cls-9" d="M206.7,62.4a3.15,3.15,0,0,1-.61.06,3,3,0,0,1-.79-.11,1.92,1.92,0,0,1-.64-.36,1.69,1.69,0,0,1-.43-.62,2.21,2.21,0,0,1-.15-.88V55.8h-1v-.63h1V52.88h.69v2.29h2.51v.63h-2.51v4.61a1.25,1.25,0,0,0,.4,1.08,1.63,1.63,0,0,0,1,.31,2.09,2.09,0,0,0,.5,0,3.58,3.58,0,0,0,.55-.19v.65A4.42,4.42,0,0,1,206.7,62.4Z"/><path class="cls-9" d="M214.23,62.33V61.14a3.5,3.5,0,0,1-.44.5,2.85,2.85,0,0,1-.6.43,3.37,3.37,0,0,1-.76.31,3.73,3.73,0,0,1-.94.12,3.77,3.77,0,0,1-1-.14,2.69,2.69,0,0,1-.89-.42,2.37,2.37,0,0,1-.64-.7,2,2,0,0,1-.24-1h0a2,2,0,0,1,.87-1.73,2.83,2.83,0,0,1,1-.45,5.53,5.53,0,0,1,1.28-.15,8.11,8.11,0,0,1,1.3.08,9.7,9.7,0,0,1,1.07.23v-.31a2.09,2.09,0,0,0-.62-1.64,2.6,2.6,0,0,0-1.74-.54,4.11,4.11,0,0,0-1.21.16,6.23,6.23,0,0,0-1,.42l-.33-.65a7.6,7.6,0,0,1,1.2-.46,5.08,5.08,0,0,1,1.34-.17,3.17,3.17,0,0,1,2.19.7,2.64,2.64,0,0,1,.8,2.11V62.3Zm0-3.49c-.3-.08-.65-.15-1-.22a7.83,7.83,0,0,0-1.37-.11,2.85,2.85,0,0,0-1.75.46,1.42,1.42,0,0,0-.61,1.21h0a1.38,1.38,0,0,0,.16.69,1.72,1.72,0,0,0,.46.51,2.07,2.07,0,0,0,.67.32,2.94,2.94,0,0,0,.78.11,3.08,3.08,0,0,0,1-.16,2.88,2.88,0,0,0,.87-.45,2.3,2.3,0,0,0,.59-.69,2,2,0,0,0,.21-.89Z"/><path class="cls-9" d="M217.47,62.33V52.08h.69V62.33Z"/></g></g></g></g></svg>