<svg id="dashboard" xmlns="http://www.w3.org/2000/svg" width="17.2" height="17.2" viewBox="0 0 17.2 17.2">
	<g id="Group_4413" data-name="Group 4413" transform="translate(2.15 2.15)">
		<path id="Path_13664" data-name="Path 13664" d="M7.658,7.3H4.075A1.076,1.076,0,0,1,3,6.225V4.075A1.076,1.076,0,0,1,4.075,3H7.658A1.076,1.076,0,0,1,8.733,4.075v2.15A1.076,1.076,0,0,1,7.658,7.3ZM4.075,3.717a.359.359,0,0,0-.358.358v2.15a.359.359,0,0,0,.358.358H7.658a.359.359,0,0,0,.358-.358V4.075a.359.359,0,0,0-.358-.358Z" transform="translate(-3 -3)" fill="#fff" />
	</g>
	<g id="Group_4414" data-name="Group 4414" transform="translate(9.317 10.75)">
		<path id="Path_13665" data-name="Path 13665" d="M17.658,19.3H14.075A1.076,1.076,0,0,1,13,18.225v-2.15A1.076,1.076,0,0,1,14.075,15h3.583a1.076,1.076,0,0,1,1.075,1.075v2.15A1.076,1.076,0,0,1,17.658,19.3Zm-3.583-3.583a.359.359,0,0,0-.358.358v2.15a.359.359,0,0,0,.358.358h3.583a.359.359,0,0,0,.358-.358v-2.15a.359.359,0,0,0-.358-.358Z" transform="translate(-13 -15)" fill="#fff" />
	</g>
	<g id="Group_4415" data-name="Group 4415" transform="translate(9.317 2.15)">
		<path id="Path_13666" data-name="Path 13666" d="M17.658,10.167H14.075A1.076,1.076,0,0,1,13,9.092V4.075A1.076,1.076,0,0,1,14.075,3h3.583a1.076,1.076,0,0,1,1.075,1.075V9.092A1.076,1.076,0,0,1,17.658,10.167Zm-3.583-6.45a.359.359,0,0,0-.358.358V9.092a.359.359,0,0,0,.358.358h3.583a.359.359,0,0,0,.358-.358V4.075a.359.359,0,0,0-.358-.358Z" transform="translate(-13 -3)" fill="#fff" />
	</g>
	<g id="Group_4416" data-name="Group 4416" transform="translate(2.15 7.883)">
		<path id="Path_13667" data-name="Path 13667" d="M7.658,18.167H4.075A1.076,1.076,0,0,1,3,17.092V12.075A1.076,1.076,0,0,1,4.075,11H7.658a1.076,1.076,0,0,1,1.075,1.075v5.017A1.076,1.076,0,0,1,7.658,18.167Zm-3.583-6.45a.359.359,0,0,0-.358.358v5.017a.359.359,0,0,0,.358.358H7.658a.359.359,0,0,0,.358-.358V12.075a.359.359,0,0,0-.358-.358Z" transform="translate(-3 -11)" fill="#fff" />
	</g>
	<g id="Group_4417" data-name="Group 4417">
		<path id="Path_13668" data-name="Path 13668" d="M15.408,17.2H1.792A1.794,1.794,0,0,1,0,15.408V1.792A1.794,1.794,0,0,1,1.792,0H15.408A1.794,1.794,0,0,1,17.2,1.792V15.408A1.794,1.794,0,0,1,15.408,17.2ZM1.792.717A1.076,1.076,0,0,0,.717,1.792V15.408a1.076,1.076,0,0,0,1.075,1.075H15.408a1.076,1.076,0,0,0,1.075-1.075V1.792A1.076,1.076,0,0,0,15.408.717Z" fill="#fff" />
	</g>
</svg>
