<svg height="480pt" viewBox="-20 0 480 480" width="480pt" xmlns="http://www.w3.org/2000/svg"><path d="m336 328v-80c-.042969-39.746094-32.253906-71.957031-72-72h-128c-39.746094.042969-71.957031 32.253906-72 72v104h16v-104c.035156-30.914062 25.085938-55.964844 56-56h12.6875l45.65625 45.65625c3.125 3.121094 8.1875 3.121094 11.3125 0l45.65625-45.65625h12.6875c30.914062.035156 55.964844 25.085938 56 56v80zm-136-107.3125-28.6875-28.6875h57.375zm0 0"/><path d="m120 264h16v72h-16zm0 0"/><path d="m264 264h16v56h-16zm0 0"/><path d="m432 352h-102.023438c-17.632812-9.652344-37.355468-14.84375-57.457031-15.121094-.605469-.054687-1.238281-.078125-1.800781-.078125-20.707031 0-41.085938 5.191407-59.269531 15.101563l-59.449219.097656c-17.671875 0-32 14.328125-32 32-.007812.632812.03125 1.265625.113281 1.894531.117188 2.195313.46875 4.367188 1.039063 6.488281l-45.097656-20.664062-.726563-.359375-26.9375-12.304687c-10.566406-4.863282-22.886719-4.003907-32.679687 2.273437-9.796876 6.28125-15.7187505 17.117187-15.710938 28.75v1.761719c-.0585938 12.949218 7.277344 24.792968 18.894531 30.511718l103.441407 51.800782c7.785156 3.839844 16.34375 5.839844 25.023437 5.847656h284.640625c4.417969 0 8-3.582031 8-8v-112c0-4.417969-3.582031-8-8-8zm-112 112h-172.640625c-6.21875-.011719-12.355469-1.445312-17.933594-4.191406l-103.394531-51.808594c-6.15625-3.027344-10.050781-9.296875-10.03125-16.160156v-1.761719c0-6.179687 3.144531-11.933594 8.351562-15.269531 5.203126-3.335938 11.746094-3.789063 17.359376-1.207032l26.714843 12.199219.71875.351563 63.511719 29.121094c1.050781.480468 2.191406.726562 3.34375.726562h88v-16h-72c-8.546875.011719-15.578125-6.730469-15.925781-15.273438-.011719-.265624-.035157-.535156-.074219-.796874.039062-8.808594 7.191406-15.929688 16-15.929688h61.359375c1.371094 0 2.71875-.351562 3.914063-1.023438l1.917968-1.082031c15.742188-8.550781 33.359375-13.074219 51.273438-13.167969.484375.097657.976562.148438 1.472656.152344 16.730469.160156 33.195312 4.242188 48.0625 11.921875zm104 0h-88v-96h88zm0 0"/><path d="m352 432h16v16h-16zm0 0"/><path d="m200 160c35.332031-.039062 63.960938-28.671875 64-64v-32c0-35.347656-28.652344-64-64-64s-64 28.652344-64 64v32c.039062 35.328125 28.671875 63.960938 64 64zm-48-96c0-26.507812 21.492188-48 48-48 26.511719 0 48 21.492188 48 48v32c0 26.507812-21.488281 48-48 48-26.507812 0-48-21.492188-48-48zm0 0"/><path d="m184 64c.015625-6.777344 4.285156-12.816406 10.671875-15.089844l-5.34375-15.078125c-12.769531 4.539063-21.308594 16.613281-21.328125 30.167969v8h16zm0 0"/></svg>