<?xml version="1.0" encoding="iso-8859-1"?>
<!-- Generator: Adobe Illustrator 19.0.0, SVG Export Plug-In . SVG Version: 6.00 Build 0)  -->
<svg version="1.1" id="Capa_1" xmlns="http://www.w3.org/2000/svg" xmlns:xlink="http://www.w3.org/1999/xlink" x="0px" y="0px"
	 viewBox="0 0 512 512" style="enable-background:new 0 0 512 512;" xml:space="preserve">
<g>
	<g>
		<path d="M476.963,209.153c-9.241-2.723-16.248-9.539-19.225-18.701s-1.314-18.796,4.562-26.43
			c13.534-17.583,13.851-40.544,0.809-58.495c-13.042-17.951-34.978-24.745-55.882-17.306c-9.076,3.23-18.751,1.834-26.546-3.829
			c-7.794-5.663-12.111-14.433-11.845-24.063c0.614-22.18-12.625-40.943-33.728-47.799c-21.101-6.856-42.841,0.541-55.382,18.846
			c-5.445,7.948-14.093,12.505-23.726,12.505c-9.634,0-18.281-4.558-23.726-12.506c-12.541-18.305-34.28-25.701-55.382-18.846
			c-21.102,6.857-34.342,25.619-33.728,47.8c0.267,9.629-4.05,18.4-11.844,24.062c-7.794,5.663-17.469,7.058-26.546,3.829
			c-20.905-7.437-42.84-0.645-55.882,17.306c-13.042,17.951-12.724,40.912,0.809,58.495c5.876,7.635,7.539,17.268,4.562,26.43
			s-9.984,15.978-19.225,18.701C13.753,215.423,0,233.812,0,256c0,22.189,13.752,40.578,35.037,46.849
			c9.241,2.723,16.248,9.538,19.225,18.701c2.977,9.163,1.315,18.795-4.561,26.429c-13.534,17.583-13.852,40.544-0.81,58.495
			c13.043,17.951,34.977,24.742,55.883,17.306c9.077-3.229,18.752-1.834,26.545,3.829c7.794,5.662,12.111,14.433,11.845,24.063
			c-0.614,22.18,12.626,40.942,33.728,47.799c5.228,1.699,10.494,2.523,15.65,2.522c15.658,0,30.298-7.598,39.732-21.368
			c5.445-7.947,14.093-12.505,23.726-12.505c9.634,0,18.282,4.558,23.727,12.505c12.541,18.305,34.279,25.702,55.382,18.846
			c21.102-6.857,34.342-25.619,33.728-47.799c-0.266-9.63,4.051-18.401,11.845-24.064c7.794-5.661,17.467-7.059,26.546-3.828
			c20.907,7.437,42.84,0.645,55.882-17.306s12.725-40.912-0.81-58.495c-5.876-7.634-7.538-17.268-4.561-26.43
			s9.984-15.978,19.225-18.701C498.248,296.578,512,278.19,512,256C512,233.812,498.247,215.423,476.963,209.153z M471.289,283.589
			c-15.462,4.555-27.666,16.427-32.647,31.756c-4.981,15.329-2.085,32.107,7.747,44.881c9.673,12.567,6.588,26.034,0.476,34.447
			c-6.111,8.413-17.967,15.507-32.908,10.191c-15.187-5.403-32.037-2.974-45.077,6.501c-13.04,9.474-20.559,24.75-20.114,40.863
			c0.439,15.852-9.972,24.934-19.861,28.148c-9.892,3.214-23.651,1.985-32.614-11.098c-9.11-13.297-24.172-21.236-40.29-21.236
			c-16.118,0-31.18,7.939-40.29,21.236c-8.963,13.082-22.722,14.312-32.614,11.098c-9.889-3.213-20.301-12.295-19.862-28.148
			c0.446-16.113-7.073-31.388-20.113-40.862c-8.462-6.149-18.529-9.33-28.704-9.33c-5.505,0-11.042,0.931-16.374,2.828
			c-14.941,5.316-26.796-1.779-32.908-10.191c-6.112-8.413-9.197-21.879,0.477-34.447c9.831-12.773,12.727-29.551,7.746-44.881
			c-4.981-15.329-17.185-27.201-32.647-31.755c-15.213-4.482-20.633-17.19-20.633-27.588c0-10.398,5.42-23.106,20.632-27.588
			c15.462-4.555,27.666-16.426,32.647-31.755c4.981-15.329,2.085-32.108-7.746-44.881c-9.673-12.567-6.589-26.034-0.476-34.447
			c6.111-8.413,17.967-15.506,32.908-10.191c15.185,5.403,32.037,2.973,45.078-6.502c13.04-9.475,20.559-24.75,20.113-40.862
			c-0.439-15.853,9.973-24.935,19.862-28.148c9.888-3.212,23.65-1.985,32.614,11.098c9.11,13.297,24.172,21.236,40.29,21.236
			c16.119,0,31.18-7.939,40.29-21.236c8.962-13.083,22.723-14.311,32.613-11.098c9.89,3.213,20.301,12.295,19.862,28.149
			c-0.446,16.112,7.074,31.388,20.113,40.862c13.041,9.474,29.891,11.905,45.078,6.501c14.942-5.316,26.796,1.779,32.908,10.192
			c6.112,8.412,9.197,21.879-0.476,34.447c-9.831,12.773-12.727,29.551-7.746,44.88c4.981,15.33,17.185,27.201,32.647,31.756
			c15.212,4.481,20.632,17.189,20.632,27.588C491.922,266.402,486.501,279.107,471.289,283.589z"/>
	</g>
</g>
<g>
	<g>
		<path d="M256,97.467c-34.906,0-68.017,11.125-95.753,32.173c-26.831,20.361-46.832,49.275-56.317,81.415
			c-1.57,5.318,1.469,10.901,6.787,12.47c0.949,0.28,1.905,0.413,2.846,0.413c4.335,0,8.335-2.83,9.624-7.2
			c8.282-28.061,25.754-53.313,49.198-71.104c24.215-18.376,53.128-28.089,83.615-28.089c5.545,0,10.039-4.495,10.039-10.039
			C266.039,101.961,261.544,97.467,256,97.467z"/>
	</g>
</g>
<g>
	<g>
		<path d="M378.089,341.144c-4.322-3.474-10.642-2.787-14.114,1.535c-26.451,32.906-65.807,51.778-107.975,51.778
			c-5.545,0-10.039,4.495-10.039,10.039s4.495,10.039,10.039,10.039c48.282,0,93.341-21.606,123.624-59.278
			C383.098,350.937,382.411,344.617,378.089,341.144z"/>
	</g>
</g>
<g>
	<g>
		<circle cx="391.54" cy="318.411" r="10.206"/>
	</g>
</g>
<g>
	<g>
		<path d="M236.413,334.313l-68.021-68.022c-2.929-2.929-7.639-0.733-10.988,2.616c-3.453,3.453-5.546,8.058-2.616,10.988
			l42.069,42.069l-59.231-18.837c-9.419-2.93-12.454-1.988-17.372,2.93c-3.453,3.453-5.442,8.163-2.512,11.093l67.918,67.917
			c2.825,2.825,7.639,0.941,11.092-2.512c3.35-3.349,5.338-8.267,2.512-11.093l-42.068-42.069l64.568,19.569
			c5.024,1.466,8.895-0.314,12.137-3.557C237.251,342.057,239.239,337.139,236.413,334.313z"/>
	</g>
</g>
<g>
	<g>
		<path d="M294.913,272.671c-3.244-3.244-7.638-4.5-10.359-1.779l-29.615,29.615l-21.035-21.034l15.906-15.906
			c2.931-2.93,1.466-7.116-0.941-9.523c-2.826-2.825-7.011-3.872-9.732-1.151l-15.906,15.906l-20.932-20.931l29.615-29.615
			c2.721-2.721,1.465-7.116-1.779-10.36c-2.825-2.825-7.22-4.5-10.15-1.57l-37.256,37.255c-3.034,3.035-4.499,7.43-1.674,10.256
			l67.918,67.917c2.825,2.826,7.221,1.361,10.255-1.674l37.255-37.255C299.413,279.892,297.739,275.497,294.913,272.671z"/>
	</g>
</g>
<g>
	<g>
		<path d="M369.008,202.347l-45.104-86.543c-0.209-0.419-0.628-1.046-1.047-1.465c-3.035-3.035-10.256-0.628-14.128,3.244
			c-2.092,2.093-3.243,4.709-1.778,7.221l40.185,73.254l-45.313-27.523c-3.243-1.988-7.429-0.104-10.359,2.826
			c-3.035,3.035-4.918,7.22-2.931,10.465l27.522,45.313l-73.254-40.186c-2.512-1.465-5.127-0.314-7.221,1.779
			c-3.872,3.872-6.279,11.093-3.244,14.128c0.419,0.419,1.047,0.837,1.465,1.046l86.545,45.104c4.081,2.197,9.523-0.314,13.5-4.291
			c3.872-3.872,6.488-9.418,4.081-13.29l-21.453-35.058l34.952,21.558c3.873,2.406,9.42-0.21,13.291-4.082
			C368.694,211.869,371.1,206.533,369.008,202.347z"/>
	</g>
</g>
<g>
</g>
<g>
</g>
<g>
</g>
<g>
</g>
<g>
</g>
<g>
</g>
<g>
</g>
<g>
</g>
<g>
</g>
<g>
</g>
<g>
</g>
<g>
</g>
<g>
</g>
<g>
</g>
<g>
</g>
</svg>
