<svg xmlns="http://www.w3.org/2000/svg" width="100%" height="100%" viewBox="0 0 117.898 27.587">
  <g id="Layer_2" data-name="Layer 2" transform="translate(6.943 103.664)">
    <g id="Layer_2-2" data-name="Layer 2" transform="translate(-6.943 -103.664)">
      <path id="Path_3215" data-name="Path 3215" d="M27.589,0H13.618C7.979,0,2.065,4.427.55,9.858A13.832,13.832,0,0,0,13.8,27.587h13.97c5.639,0,11.553-4.427,13.069-9.858A13.832,13.832,0,0,0,27.589,0Z" transform="translate(-0.002)" fill="#cd503c"/>
      <ellipse id="Ellipse_480" data-name="Ellipse 480" cx="9.018" cy="9.276" rx="9.018" ry="9.276" transform="translate(14.73 13.612) rotate(-45)" fill="#fff"/>
      <path id="Path_3216" data-name="Path 3216" d="M857.7,117.271c0,4.392-2.618,8.029-9.017,8.029-6.582,0-8.87-3.869-8.87-7.941,0-3.752,2.654-7.709,9.127-7.709C854.973,109.649,857.7,113.2,857.7,117.271Zm-12.872-.029c0,3.229,1.382,4.945,4.036,4.945,2.473,0,3.854-1.716,3.854-4.887,0-3-1.309-4.538-4-4.538-2.508,0-3.891,1.745-3.891,4.479Z" transform="translate(-795.47 -103.861)" fill="#fff"/>
      <path id="Path_3217" data-name="Path 3217" d="M1216.553,116.064c0-2.473,0-4.073-.073-5.121h4.8a18.093,18.093,0,0,1,.146,2.647c.618-1.251,2.29-2.88,5.708-2.88v4.013c-3.891-.058-5.636.989-5.636,4.451v6.839h-4.945Z" transform="translate(-1152.253 -104.865)" fill="#fff"/>
      <path id="Path_3218" data-name="Path 3218" d="M1443.823,0h4.945V7.738c.8-.96,2.255-1.949,5.2-1.949,4.836,0,7.272,3.345,7.272,7.33,0,4.857-2.693,8.289-7.963,8.289-2.727,0-3.964-.9-4.582-1.716-.036.495-.073.96-.145,1.455h-4.8c.036-1.018.073-3.054.073-4.6Zm8.547,9.047c-2.945,0-3.891,1.571-3.891,4.479,0,3.083,1.018,4.713,3.891,4.713,2.654,0,3.891-1.92,3.891-4.946C1456.258,10.824,1455.095,9.047,1452.369,9.047Z" transform="translate(-1367.523)" fill="#fff"/>
      <path id="Path_3219" data-name="Path 3219" d="M1815,3.636V0h4.945V3.636Zm0,2.443h4.945V21.148H1815Z" transform="translate(-1719.172)" fill="#fff"/>
      <path id="Path_3220" data-name="Path 3220" d="M1942.386,120.393c.218,1.28,1.345,2.036,3.237,2.036,1.742,0,2.654-.553,2.654-1.513,0-.989-1.056-1.367-3.927-2.006-5.016-1.135-6.182-2.531-6.182-4.683,0-1.891,1.491-4.567,7.164-4.567,4.982,0,7.09,2.065,7.308,4.6h-4.8c-.146-.815-.727-1.716-2.728-1.716-1.345,0-2.109.437-2.109,1.309,0,.814.727,1.193,3.455,1.745,5.126,1.077,6.691,2.56,6.691,4.945,0,3.115-3.237,4.742-7.673,4.742-4.618,0-7.527-1.629-7.927-4.887Z" transform="translate(-1835.251 -103.87)" fill="#fff"/>
    </g>
  </g>
</svg>
