<svg xmlns="http://www.w3.org/2000/svg" width="100%" height="100%" viewBox="0 0 171.885 40.219">
	<defs>
		<style>
			.a{fill:#cd503c;}.b{fill:#fff;}
		</style>
	</defs>
	<g transform="translate(0)">
		<path class="a" d="M40.221,0H19.853C11.632,0,3.009,6.454.8,14.372A20.167,20.167,0,0,0,20.112,40.219H40.479c8.221,0,16.844-6.454,19.053-14.372A20.166,20.166,0,0,0,40.221,0Z" transform="translate(-0.002)" />
		<ellipse class="b" cx="13.148" cy="13.523" rx="13.148" ry="13.523" transform="translate(21.476 19.844) rotate(-45)" />
		<path d="M865.888,120.761c0,6.4-3.816,11.7-13.146,11.7-9.6,0-12.932-5.641-12.932-11.578,0-5.471,3.87-11.238,13.306-11.238C861.917,109.649,865.888,114.823,865.888,120.761Zm-18.766-.042c0,4.707,2.014,7.209,5.884,7.209,3.6,0,5.619-2.5,5.619-7.125,0-4.368-1.908-6.616-5.831-6.616-3.656,0-5.672,2.544-5.672,6.531Z" transform="translate(-775.166 -101.21)" />
		<path d="M1216.586,118.516c0-3.606,0-5.938-.106-7.467h7a26.4,26.4,0,0,1,.213,3.859c.9-1.824,3.339-4.2,8.322-4.2v5.85c-5.672-.085-8.217,1.442-8.217,6.489v9.971h-7.209Z" transform="translate(-1122.842 -102.188)" />
		<path d="M1443.856,0h7.209V11.281c1.166-1.4,3.287-2.841,7.581-2.841,7.051,0,10.6,4.877,10.6,10.687,0,7.082-3.926,12.085-11.609,12.085-3.976,0-5.779-1.315-6.68-2.5-.053.721-.106,1.4-.212,2.121h-7c.053-1.484.106-4.453.106-6.7Zm12.46,13.19c-4.294,0-5.672,2.29-5.672,6.531,0,4.5,1.484,6.871,5.672,6.871,3.87,0,5.672-2.8,5.672-7.21C1461.986,15.78,1460.29,13.19,1456.316,13.19Z" transform="translate(-1332.617)" />
		<path d="M1815,5.3V0h7.209V5.3Zm0,3.562h7.209V30.832H1815Z" transform="translate(-1675.291)" />
		<path d="M1944.6,125.308c.318,1.866,1.961,2.969,4.719,2.969,2.54,0,3.869-.806,3.869-2.205,0-1.442-1.54-1.994-5.725-2.925-7.313-1.654-9.012-3.689-9.012-6.828,0-2.756,2.174-6.658,10.444-6.658,7.263,0,10.337,3.011,10.655,6.7h-7c-.212-1.188-1.06-2.5-3.976-2.5-1.961,0-3.074.637-3.074,1.909,0,1.187,1.06,1.739,5.037,2.544,7.474,1.57,9.754,3.733,9.754,7.21,0,4.542-4.719,6.913-11.186,6.913-6.732,0-10.973-2.375-11.556-7.125Z" transform="translate(-1788.407 -101.219)" />
	</g>
</svg>
