<svg id="Layer_1" height="512" viewBox="0 0 128 128" width="512" xmlns="http://www.w3.org/2000/svg" data-name="Layer 1"><path d="m35.579 98.863a1.75 1.75 0 0 0 -1.75 1.75v12.333a1.75 1.75 0 0 0 3.5 0v-12.333a1.75 1.75 0 0 0 -1.75-1.75z"/><path d="m112.315 82.739-8.25-8.25a1.75 1.75 0 0 0 -1.237-.513h-25.5a1.75 1.75 0 0 0 -1.75 1.75v3.091l-3.451-.773-.56-6.158a22.74 22.74 0 0 0 12.673-15.54 6.493 6.493 0 0 0 1.046-12.495c1.13-4.27 3.175-14.62-1.6-20.434-2.541-3.1-6.509-4.416-11.8-3.926a21.162 21.162 0 0 0 -6.77-4.591c-4.356-1.84-11.416-3.005-20.316 1.9-9.325 5.146-9.551 18.513-6.181 27.14a6.495 6.495 0 0 0 1.468 12.428 22.741 22.741 0 0 0 12.513 15.446l-.567 6.229-22.857 5.123a17.6 17.6 0 0 0 -14 17.045v12.736a1.75 1.75 0 1 0 3.5 0v-12.736a14.116 14.116 0 0 1 11.271-13.631l16.234-3.638 7.383 7.715a1.75 1.75 0 0 0 2.429.1l.865-.772 3.291 3.683-4.89 18.843a1.75 1.75 0 0 0 3.388.879l3.431-13.222 3.43 13.222a1.75 1.75 0 0 0 3.389-.879l-4.89-18.843 3.293-3.687.864.771a1.75 1.75 0 0 0 2.43-.1l4.981-5.205v27.5a1.75 1.75 0 1 0 3.5 0v-35.471h22v6.5a1.75 1.75 0 0 0 1.75 1.75h6.5v27.221a1.75 1.75 0 1 0 3.5 0v-28.971a1.75 1.75 0 0 0 -.51-1.237zm-27.525-30.331q.028-.562.029-1.13v-3.75a2.984 2.984 0 0 1 -.029 4.88zm-38.3-32.539a22.2 22.2 0 0 1 10.768-3.069 16.913 16.913 0 0 1 12.574 5.623 1.742 1.742 0 0 0 1.586.64c4.474-.572 7.692.294 9.563 2.57 3.489 4.247 2.1 12.968.889 17.469-6.67-2.041-12.747-8.592-12.812-8.664a1.753 1.753 0 0 0 -2.4-.167c-7.922 6.53-20.591 8.566-24.514 9.056-3.219-7.441-3.162-19.314 4.347-23.458zm-8.4 30.086a2.994 2.994 0 0 1 1.41-2.537v3.859c0 .414.013.826.035 1.235a2.993 2.993 0 0 1 -1.449-2.556zm4.91 1.322v-4.524c4.442-.572 16.205-2.605 24.612-8.793 2.277 2.212 7.674 6.939 13.705 8.622v4.7a19.158 19.158 0 1 1 -38.317 0zm19.16 22.659a22.593 22.593 0 0 0 6-.813l.475 5.227-6.557 2.73-6.558-2.73.48-5.272a22.585 22.585 0 0 0 6.16.858zm-11.99 8.111 3.33-.747 5.337 2.222-3.914 3.493zm11.909 8.523-2.609-2.92 2.609-2.329 2.609 2.329zm7.154-3.555-.906-.809-3-2.682 5.328-2.224 3.331.747zm35.346-7.065 2.275 2.275h-2.275z"/><path d="m102.883 88.7h-17.363a1.75 1.75 0 0 0 0 3.5h17.363a1.75 1.75 0 0 0 0-3.5z"/><path d="m102.883 95.863h-17.363a1.75 1.75 0 0 0 0 3.5h17.363a1.75 1.75 0 0 0 0-3.5z"/><path d="m102.883 103.03h-17.363a1.75 1.75 0 0 0 0 3.5h17.363a1.75 1.75 0 0 0 0-3.5z"/></svg>